<?xml version="1.0" encoding="UTF-8"?>
<svg id="Layer_1" xmlns="http://www.w3.org/2000/svg" version="1.1" viewBox="0 0 73.54 73.54">
  <!-- Generator: Adobe Illustrator 30.1.0, SVG Export Plug-In . SVG Version: 2.1.1 Build 136)  -->
  <defs>
    <style>
      .st0 {
        fill: #009689;
      }

      .st1 {
        fill: #fff;
      }
    </style>
  </defs>
  <rect class="st0" width="73.54" height="73.54" rx="9.43" ry="9.43"/>
  <path class="st1" d="M37.16,67.21c16.57,0,30-13.43,30-30S53.73,7.21,37.16,7.21,7.16,20.64,7.16,37.21s13.43,30,30,30ZM13.35,40.21h10.86c.17,5.09.88,13,3.39,19-7.76-3.38-13.17-10.6-14.25-19ZM37.16,13.21c3.57,0,6.51,9.16,6.94,21h-13.88c.43-11.84,3.37-21,6.94-21ZM44.1,40.21c-.43,11.84-3.37,21-6.94,21s-6.51-9.16-6.94-21h13.88ZM46.72,59.21c2.51-6,3.21-13.91,3.39-19h10.86c-1.08,8.4-6.49,15.62-14.25,19ZM60.97,34.21h-10.86c-.17-5.09-.88-13-3.39-19,7.76,3.38,13.17,10.6,14.25,19ZM27.6,15.21c-2.51,6-3.21,13.91-3.39,19h-10.86c1.08-8.4,6.49-15.62,14.25-19Z"/>
</svg>